<?xml version="1.0" standalone="no"?>
<!DOCTYPE svg PUBLIC "-//W3C//DTD SVG 20010904//EN"
 "http://www.w3.org/TR/2001/REC-SVG-20010904/DTD/svg10.dtd">
<svg version="1.0" xmlns="http://www.w3.org/2000/svg"
 width="508.000000pt" height="508.000000pt" viewBox="0 0 508.000000 508.000000"
 preserveAspectRatio="xMidYMid meet">
<metadata>
Created by potrace 1.11, written by Peter Selinger 2001-2013
</metadata>
<g transform="translate(0.000000,508.000000) scale(0.100000,-0.100000)"
fill="#000000" stroke="none">
<path d="M2420 4835 c-7 -8 -29 -15 -50 -15 -20 0 -40 -3 -43 -7 -10 -10 13
-32 28 -27 19 8 25 -8 11 -28 -7 -9 -28 -17 -51 -18 -66 -3 -73 -1 -77 22 -4
31 -33 34 -58 6 -19 -23 -24 -24 -98 -16 -42 5 -147 7 -232 5 -125 -4 -166 -8
-213 -25 -166 -60 -265 -129 -455 -315 -40 -40 -72 -67 -71 -62 4 23 -2 35
-16 35 -9 0 -30 -33 -54 -84 -21 -46 -45 -88 -53 -92 -25 -16 -135 -149 -177
-213 -51 -79 -101 -231 -101 -305 0 -30 -5 -67 -11 -83 -6 -15 -17 -48 -24
-73 -7 -25 -24 -83 -38 -130 -14 -47 -31 -111 -38 -142 -12 -57 -13 -58 -47
-58 -32 0 -92 -27 -92 -41 0 -4 -11 -17 -25 -30 -13 -13 -25 -30 -25 -36 0 -7
-4 -13 -8 -13 -8 0 -31 -48 -60 -121 -37 -96 -43 -477 -8 -569 28 -73 55 -114
89 -136 18 -12 58 -38 89 -58 31 -20 74 -59 94 -87 21 -27 41 -49 45 -49 10 0
17 -70 7 -76 -12 -8 -9 -36 6 -53 7 -9 19 -54 25 -101 13 -90 30 -160 62 -250
22 -63 19 -55 93 -215 30 -66 67 -163 83 -217 15 -53 32 -94 37 -91 5 4 6 1 2
-5 -8 -13 39 -112 85 -178 45 -66 140 -164 159 -164 19 -1 52 -25 44 -33 -3
-3 4 -10 15 -17 12 -6 21 -17 21 -26 0 -8 7 -17 15 -20 8 -4 15 -12 15 -18 0
-7 11 -19 25 -26 13 -7 22 -16 20 -20 -4 -7 35 -46 46 -45 4 0 16 -11 28 -25
11 -14 20 -21 21 -17 0 4 13 -5 28 -21 27 -28 60 -47 75 -44 4 1 7 -3 7 -8 0
-6 9 -10 19 -10 11 0 21 -4 23 -9 2 -5 10 -11 18 -13 8 -2 18 -7 21 -11 3 -4
16 -9 27 -10 12 -1 22 -5 22 -9 0 -4 8 -8 18 -8 10 0 37 -16 59 -35 48 -41 81
-55 107 -45 16 5 15 8 -13 19 -17 8 -34 18 -38 24 -3 5 -2 7 4 4 25 -16 143
-30 143 -18 0 5 -8 10 -17 9 -10 0 -30 3 -45 6 -67 14 -84 18 -97 18 -16 2
-96 78 -146 141 -38 48 -41 63 -5 27 12 -12 26 -18 32 -14 7 4 8 3 4 -4 -11
-18 77 -86 124 -97 3 -1 18 -5 34 -10 18 -5 36 -4 47 3 21 13 65 -1 86 -28 7
-8 13 -11 13 -7 0 4 12 -4 26 -18 26 -26 30 -26 108 -20 91 6 112 17 67 33
-17 6 -31 14 -31 18 0 11 91 -5 108 -18 10 -9 58 -13 146 -14 93 -1 145 -6
179 -17 43 -16 70 -21 152 -33 33 -5 61 8 51 24 -3 6 -36 20 -74 32 -93 30
-111 59 -39 61 l42 2 -39 6 c-37 6 -38 7 -20 23 12 10 39 18 71 19 53 3 114
25 120 45 2 7 -4 19 -13 29 -15 14 -15 18 -3 26 8 5 19 9 26 9 12 0 25 5 124
49 26 11 60 23 75 27 l29 7 -20 -24 c-31 -37 -38 -43 -65 -60 -26 -16 -79 -34
-93 -30 -5 1 -6 -3 -3 -7 3 -5 20 -8 37 -6 l32 4 -30 -29 c-43 -41 -76 -61
-125 -76 -24 -8 -34 -14 -22 -14 11 -1 24 -5 30 -10 18 -19 321 140 308 161
-4 7 -2 8 4 4 11 -7 60 19 74 39 4 5 8 7 8 3 0 -7 22 9 54 37 6 6 32 25 58 43
25 18 56 44 67 58 12 15 21 24 21 21 0 -3 15 9 33 26 19 18 33 33 32 34 -1 2
21 27 49 57 92 96 217 256 201 256 -3 0 3 10 15 22 11 12 20 24 20 28 0 3 18
26 40 50 22 25 58 75 80 112 22 36 55 86 72 110 18 24 49 75 68 113 19 39 37
72 40 75 16 15 100 201 95 210 -14 23 -32 6 -59 -55 -16 -36 -31 -64 -33 -62
-10 11 85 261 106 277 11 9 59 114 65 145 3 17 9 41 12 55 2 14 7 43 9 65 12
110 17 150 20 156 6 9 -25 50 -34 45 -6 -4 -23 18 -69 94 -12 19 -22 29 -22
22 0 -26 -20 0 -20 26 0 45 -11 71 -26 65 -8 -3 -14 0 -14 7 0 6 -5 8 -12 4
-8 -5 -10 23 -4 112 12 230 21 281 49 305 28 24 40 24 32 0 -13 -41 -13 -80 1
-98 14 -17 14 -17 29 1 8 11 25 31 38 45 12 14 41 51 63 81 23 30 57 72 77 94
l35 38 1 -98 c0 -55 5 -126 11 -159 14 -86 12 -140 -9 -220 -34 -128 -85 -213
-130 -217 -19 -3 -29 7 -53 52 -17 30 -37 64 -44 75 -13 19 -14 18 -14 -8 0
-34 34 -123 56 -148 27 -30 73 -24 115 14 96 87 152 339 110 492 -5 19 -9 67
-10 107 0 145 1 138 -23 138 -30 -1 -61 -29 -130 -120 -32 -41 -67 -86 -78
-100 l-21 -25 7 30 c3 17 13 53 21 81 14 45 21 53 69 78 30 16 54 34 54 41 0
25 -30 24 -56 0 -15 -14 -29 -23 -31 -21 -8 7 17 46 29 46 6 0 16 7 22 15 16
21 178 34 174 14 -2 -8 5 -14 17 -14 16 0 20 7 20 30 0 29 -2 30 -47 31 -46 1
-130 -8 -185 -20 -28 -6 -30 -4 -42 34 -10 35 -10 45 6 73 10 17 27 40 37 50
10 9 15 17 10 17 -16 0 90 93 123 106 88 38 172 -16 208 -132 44 -140 70 -503
46 -619 -44 -204 -86 -324 -132 -372 -35 -38 -62 -47 -117 -39 -33 4 -43 1
-62 -19 l-22 -24 38 -6 c22 -3 52 -8 68 -10 16 -3 35 0 42 6 8 6 14 8 14 5 0
-16 73 45 106 88 32 42 44 70 60 135 2 9 18 70 35 136 27 104 32 137 32 250 0
117 -8 249 -17 264 -2 3 -6 29 -10 56 -7 59 -9 71 -29 146 -36 135 -132 208
-243 185 -42 -9 -124 -70 -157 -117 -24 -34 -38 -15 -22 30 7 22 11 42 8 45
-4 3 -1 6 5 6 6 0 22 21 34 48 29 63 32 201 5 282 -19 54 -65 130 -100 162
-10 9 -18 18 -17 20 1 2 -4 16 -10 33 -7 18 -14 25 -18 18 -5 -7 -24 11 -51
48 -24 32 -47 59 -52 59 -5 0 -9 4 -9 10 0 10 -127 140 -172 175 -76 60 -207
113 -328 131 -19 3 -57 9 -85 14 -27 5 -77 12 -110 15 -32 4 -68 9 -80 11 -11
2 -33 7 -50 10 -16 3 -34 9 -41 14 -6 6 -13 8 -16 5 -5 -5 -42 9 -128 47 -25
12 -71 26 -102 32 -32 6 -58 14 -58 17 0 4 -19 8 -42 8 -24 0 -52 2 -63 5 -37
8 -140 17 -229 21 -69 2 -91 7 -98 19 -11 20 -42 21 -58 1z m-338 -125 l57
-13 -24 -32 c-14 -17 -25 -35 -25 -39 0 -4 -5 -12 -10 -19 -6 -7 -16 -20 -23
-30 -12 -17 -13 -17 -35 1 -21 19 -30 52 -14 52 4 0 12 13 18 29 13 33 1 63
-21 55 -8 -4 -12 -11 -8 -17 3 -5 1 -7 -4 -4 -6 4 -18 -4 -27 -17 -12 -20 -25
-25 -69 -28 -41 -2 -53 0 -50 10 3 6 1 12 -5 12 -6 0 -17 3 -26 6 -11 4 -16 1
-16 -10 0 -9 -4 -16 -10 -16 -5 0 -18 -17 -29 -38 -11 -22 -32 -47 -46 -56
-15 -10 -23 -22 -19 -29 5 -9 4 -9 -5 -1 -10 9 -4 29 28 89 23 42 41 73 42 68
0 -4 4 1 8 12 4 11 18 22 30 25 38 9 224 2 283 -10z m586 5 c2 -2 -21 -41 -52
-88 -44 -67 -60 -84 -78 -83 -30 1 -29 8 10 88 17 37 32 71 32 77 0 14 22 20
55 14 17 -3 31 -7 33 -8z m117 -17 c8 -8 -77 -149 -93 -155 -27 -11 -23 8 14
85 27 55 44 78 56 77 10 -1 20 -4 23 -7z m-487 -7 c22 -1 21 -5 -25 -63 -38
-49 -56 -63 -79 -65 -16 -1 -39 -5 -51 -8 -26 -6 -28 -2 -12 26 5 11 15 16 21
13 6 -4 8 -3 5 3 -4 6 7 30 22 55 26 41 33 45 63 43 18 -2 44 -3 56 -4z m209
-5 c0 -8 -4 -14 -9 -13 -8 2 -20 -16 -54 -80 -15 -27 -24 -33 -52 -33 -18 0
-32 4 -30 8 2 4 16 36 32 70 29 61 30 62 71 62 30 0 42 -4 42 -14z m-877 -4
c0 -5 -9 -20 -20 -33 -31 -38 -33 -41 -71 -99 -32 -48 -63 -102 -116 -200 -7
-14 -13 -19 -13 -12 0 7 5 22 10 32 7 13 6 21 -2 26 -7 4 -10 3 -5 -1 4 -5 0
-19 -8 -32 -9 -13 -13 -29 -9 -35 4 -6 3 -8 -4 -4 -6 3 -16 -2 -22 -11 -8 -13
-13 -14 -16 -5 -3 6 -13 12 -21 12 -12 0 -13 3 -4 13 6 8 8 17 4 20 -3 4 -2 7
4 7 5 0 10 6 10 13 0 7 16 46 35 87 19 41 42 91 51 110 13 28 32 42 99 76 89
45 98 49 98 36z m1305 -52 c3 -5 -5 -28 -19 -52 -20 -37 -29 -43 -60 -46 -40
-4 -43 3 -21 45 8 15 20 42 26 59 12 30 13 30 41 17 15 -8 30 -18 33 -23z
m194 -5 c7 -7 10 -18 7 -24 -5 -7 -23 -2 -54 15 -26 14 -49 28 -52 31 -12 12
86 -10 99 -22z m-1235 -60 c-20 -30 -44 -56 -53 -59 -45 -12 -71 -16 -71 -10
0 10 34 69 43 72 4 2 7 10 7 17 0 15 43 33 83 34 l27 1 -36 -55z m1366 34 c43
-18 48 -23 38 -39 -11 -17 -13 -17 -37 -2 -37 24 -61 45 -61 54 0 12 6 10 60
-13z m-201 -31 c20 -12 37 -22 39 -23 1 -1 0 -9 -4 -18 -5 -13 -15 -15 -47
-10 -23 3 -48 6 -54 6 -7 0 -13 9 -13 19 0 10 5 18 10 18 6 0 10 7 10 15 0 21
16 19 59 -7z m428 5 c55 -6 61 -9 47 -23 -12 -12 -114 17 -114 32 0 5 4 6 10
3 5 -3 31 -9 57 -12z m-1450 -30 c-8 -7 -79 -13 -75 -6 3 4 8 16 11 26 7 17 8
17 37 1 16 -10 28 -19 27 -21z m1406 -19 c31 -10 57 -20 57 -23 -1 -3 -10 -17
-21 -30 l-20 -25 -55 27 c-36 18 -54 33 -54 45 0 22 10 34 24 29 6 -3 37 -13
69 -23z m259 2 c27 -11 27 -11 9 -35 l-19 -25 -41 19 c-42 19 -45 23 -35 49 6
17 32 14 86 -8z m-506 -33 c-7 -8 -56 9 -51 18 3 4 17 3 30 -3 14 -6 23 -13
21 -15z m-1016 11 c0 -10 -46 -70 -60 -79 -8 -5 -24 -10 -36 -10 -11 -1 -26
-5 -32 -9 -23 -14 18 68 45 91 13 10 83 16 83 7z m82 -11 c-5 -10 -24 -52 -44
-93 -73 -155 -104 -289 -76 -326 13 -17 60 -8 78 16 21 28 31 16 18 -23 -5
-18 -11 -38 -13 -44 -3 -8 -27 3 -67 30 -35 23 -82 51 -106 61 -23 10 -42 23
-42 27 0 4 14 28 30 52 17 25 30 50 30 56 0 6 4 11 9 11 5 0 14 13 20 28 6 15
23 40 36 56 14 16 22 32 20 37 -6 9 30 31 38 23 3 -3 8 0 13 7 5 8 3 10 -6 4
-21 -13 -2 30 28 65 29 33 46 39 34 13z m72 -110 c-70 -133 -127 -228 -143
-237 -14 -9 54 185 98 278 40 84 41 86 77 86 l36 0 -68 -127z m176 73 c-11
-17 -41 -68 -66 -113 -25 -46 -50 -83 -55 -83 -16 0 -18 -4 61 166 29 63 35
70 57 66 l23 -4 -20 -32z m-826 19 c-6 -15 -35 -35 -51 -35 -6 0 46 48 54 50
1 0 0 -7 -3 -15z m974 3 c-7 -29 -74 -138 -84 -138 -7 0 5 34 25 75 19 41 42
75 49 75 7 0 12 -6 10 -12z m577 2 c3 -6 -1 -7 -9 -4 -18 7 -21 14 -7 14 6 0
13 -4 16 -10z m581 -4 c3 -7 -3 -27 -13 -44 l-19 -30 -24 19 c-14 10 -19 19
-12 19 7 0 10 5 7 10 -3 6 1 13 9 16 9 3 13 10 10 15 -3 5 4 9 16 9 11 0 23
-6 26 -14z m-1852 -53 c-20 -32 -44 -67 -54 -78 -11 -11 -18 -23 -17 -26 3
-10 -103 -179 -113 -179 -18 0 -21 21 -6 47 8 16 20 38 25 51 6 12 14 22 19
22 4 0 22 14 40 30 23 20 28 30 17 30 -8 0 -18 -6 -21 -14 -3 -8 -12 -17 -20
-20 -15 -6 27 84 72 156 21 32 30 38 59 38 l36 0 -37 -57z m876 31 c0 -7 -47
-95 -75 -139 -13 -22 -34 -58 -46 -80 -20 -37 -23 -39 -31 -19 -7 14 -5 32 6
58 8 20 15 37 14 39 -1 3 64 130 74 143 7 10 58 8 58 -2z m208 -3 c3 -10 -5
-12 -39 -6 -64 10 -75 27 -15 23 30 -2 51 -8 54 -17z m578 3 c50 -21 48 -18
29 -47 -16 -25 -17 -25 -60 -10 l-45 15 15 29 c18 34 13 33 61 13z m-1836 -56
c-17 -29 -47 -83 -68 -120 -20 -37 -47 -72 -58 -79 -12 -6 -20 -18 -18 -28 2
-9 -10 -38 -28 -65 -18 -27 -39 -59 -45 -70 l-13 -21 0 22 c0 12 4 24 9 27 4
3 11 19 14 35 6 29 84 202 113 251 9 14 18 33 21 42 4 14 74 56 96 58 4 0 -6
-24 -23 -52z m1408 37 c15 -5 15 -15 -2 -38 -14 -18 -24 -16 -94 19 -1 1 0 9
4 18 5 13 14 15 43 10 20 -3 42 -7 49 -9z m178 -25 c19 -1 44 -28 38 -43 -4
-12 -14 -8 -45 21 -21 20 -39 40 -39 46 0 5 8 2 18 -7 10 -10 23 -17 28 -17z
m-387 8 l38 -12 -33 -53 c-19 -28 -34 -55 -34 -58 0 -4 -13 -26 -30 -50 -16
-24 -30 -47 -30 -52 0 -8 -15 -29 -62 -87 l-17 -21 -1 28 c0 15 8 44 19 65 10
20 26 64 36 97 10 33 21 65 25 70 4 6 13 27 19 48 14 41 16 42 70 25z m950
-35 c68 -61 76 -76 55 -108 -23 -35 -41 -31 -59 11 -11 27 -19 34 -33 30 -12
-4 -27 3 -45 22 l-26 28 19 32 c11 18 24 32 28 32 5 0 32 -21 61 -47z m-1830
18 c2 -1 -3 -9 -11 -18 -8 -10 -46 -67 -84 -128 -37 -60 -71 -112 -74 -115 -3
-3 -16 -18 -28 -34 -12 -16 -22 -24 -22 -18 0 25 95 223 135 282 14 21 47 38
65 34 8 -1 17 -3 19 -3z m-480 -14 c-2 -1 -13 -9 -24 -17 -19 -14 -19 -14 -6
3 7 9 18 17 24 17 6 0 8 -1 6 -3z m2125 -10 c15 -11 16 -15 3 -25 -10 -9 -22
-9 -38 -3 -13 5 -18 10 -11 10 6 1 12 8 12 16 0 18 11 19 34 2z m-617 -9 l30
-13 -56 -87 c-31 -48 -81 -126 -111 -175 -35 -57 -56 -82 -58 -71 -4 22 48
174 83 242 14 27 25 55 25 63 0 7 4 13 9 13 5 0 13 9 16 20 7 23 21 25 62 8z
m199 -23 c34 -32 36 -35 14 -29 -14 3 -29 10 -34 15 -6 5 -18 9 -27 9 -12 0
-16 6 -12 20 7 27 14 26 59 -15z m-2120 -22 c-13 -27 -37 -59 -52 -73 -16 -14
-24 -18 -18 -10 6 8 28 41 48 73 21 31 40 57 42 57 2 0 -7 -21 -20 -47z m2340
2 l35 -14 -22 -31 c-26 -35 -39 -37 -63 -11 -13 14 -14 24 -7 45 12 30 11 30
57 11z m-912 -19 c-3 -9 -10 -16 -15 -16 -5 0 -4 9 3 20 14 22 21 20 12 -4z
m1192 3 c19 -22 19 -22 -3 -8 -13 8 -23 17 -23 21 0 12 6 9 26 -13z m-513 -16
c33 -16 33 -17 5 -56 -12 -18 -22 -33 -23 -35 -1 -1 -18 13 -37 31 -30 28 -33
36 -25 60 10 30 22 30 80 0z m-1751 -15 c-9 -18 -20 -35 -23 -38 -3 -3 -22
-35 -43 -72 -20 -38 -39 -68 -41 -68 -5 0 36 93 44 100 3 3 7 11 9 18 4 21 52
92 62 92 5 0 1 -15 -8 -32z m969 -9 c-5 -13 -10 -19 -10 -12 -1 15 10 45 15
40 3 -2 0 -15 -5 -28z m249 -58 c-15 -44 -25 -83 -21 -88 3 -4 -4 0 -16 10
l-21 18 40 70 c22 38 41 69 43 69 2 0 -9 -36 -25 -79z m-334 27 c-9 -12 -16
-19 -16 -15 0 11 24 47 28 42 2 -2 -3 -14 -12 -27z m680 -70 c-20 -51 -43
-106 -50 -123 -8 -16 -15 -60 -16 -96 -1 -71 8 -85 57 -80 16 2 29 -9 49 -41
15 -24 58 -90 96 -146 38 -57 78 -122 89 -143 20 -39 20 -40 0 -27 -11 7 -19
14 -17 16 2 1 -5 13 -15 25 -10 12 -52 67 -93 122 -41 55 -113 141 -160 190
-47 50 -86 95 -86 102 0 14 41 87 52 91 4 2 8 7 8 12 0 5 23 44 50 87 28 43
53 86 57 96 3 10 8 16 10 13 3 -3 -11 -47 -31 -98z m548 61 c-9 -10 -14 -19
-10 -19 4 0 -2 -10 -14 -22 -19 -21 -21 -21 -37 -5 -11 11 -13 17 -5 17 7 0
12 5 12 10 0 6 7 22 16 35 13 20 19 23 36 14 19 -10 19 -11 2 -30z m-2331 -31
c-14 -35 -34 -75 -44 -89 -10 -14 -15 -30 -11 -35 3 -5 1 -4 -6 2 -9 8 -7 21
13 62 14 29 25 56 25 61 0 8 38 61 45 61 1 0 -9 -28 -22 -62z m2057 50 c0 -2
-16 -34 -34 -71 -28 -57 -34 -64 -39 -46 -4 15 4 38 25 71 17 26 35 48 40 48
4 0 8 -1 8 -2z m740 -111 c0 -8 -44 21 -86 57 -18 15 -21 23 -13 38 9 17 14
14 54 -34 25 -29 45 -57 45 -61z m-1545 93 c3 -5 -1 -22 -9 -38 -8 -16 -13
-32 -10 -35 3 -3 1 -8 -5 -11 -16 -10 -24 33 -11 65 13 30 24 36 35 19z m879
-21 l25 -12 -28 -41 c-15 -22 -38 -60 -51 -83 -13 -24 -27 -43 -31 -43 -12 0
-19 29 -9 35 6 4 10 12 10 19 0 8 10 35 22 62 12 27 23 52 24 57 3 16 4 17 9
17 2 0 15 -5 29 -11z m-261 -59 c15 -49 14 -52 -11 -98 -14 -26 -32 -55 -41
-65 -14 -17 -15 -17 -26 3 -9 17 -7 34 10 83 32 91 47 127 50 127 2 0 10 -23
18 -50z m-2103 -11 c-12 -23 -29 -49 -36 -57 -8 -7 -14 -22 -14 -33 0 -11 -4
-18 -8 -15 -4 2 -14 -5 -21 -16 -11 -18 -11 -20 4 -15 9 4 14 3 10 -3 -3 -6
-13 -10 -21 -10 -8 0 -14 -4 -14 -9 0 -5 -6 -16 -14 -24 -19 -18 -25 -53 -9
-50 8 2 3 -19 -13 -55 -38 -83 -103 -239 -124 -297 l-19 -50 0 62 c-1 69 6 89
63 183 71 117 86 149 76 155 -12 8 -6 22 58 140 53 95 91 150 99 141 3 -2 -5
-23 -17 -47z m1222 19 c-8 -8 -9 -4 -5 13 4 13 8 18 11 10 2 -7 -1 -18 -6 -23z
m1488 -25 c-12 -26 -24 -42 -27 -36 -5 13 37 96 45 89 2 -3 -6 -26 -18 -53z
m-1166 28 c3 -5 -1 -14 -8 -20 -12 -10 -13 -8 -9 8 6 23 9 25 17 12z m1062
-38 c-11 -11 -19 6 -11 24 8 17 8 17 12 0 3 -10 2 -21 -1 -24z m184 29 c0 -5
-7 -17 -16 -28 -8 -10 -14 -14 -11 -9 2 6 7 18 10 28 7 17 17 23 17 9z m-298
-28 c3 -3 -6 -26 -20 -52 -30 -53 -42 -38 -17 21 15 35 25 44 37 31z m443 -10
c24 -6 75 -63 75 -84 0 -6 -12 -32 -27 -58 -15 -26 -27 -49 -26 -52 1 -3 -2
-21 -7 -40 -5 -19 -11 -52 -13 -72 -5 -49 -11 -54 -29 -26 -10 15 -16 50 -16
98 -1 64 -9 202 -13 227 -3 19 2 25 17 19 9 -3 26 -9 39 -12z m-1638 -37 c16
-31 16 -32 -3 -17 -27 22 -43 44 -37 53 7 12 22 -1 40 -36z m-1409 -4 c-27
-47 -28 -49 -28 -37 0 11 38 74 45 74 2 0 -5 -17 -17 -37z m1752 -37 c8 -16
20 -29 25 -30 6 0 37 -31 69 -69 73 -85 150 -148 220 -181 41 -19 67 -42 107
-93 75 -97 73 -93 61 -93 -6 0 -50 39 -99 86 -48 47 -104 98 -123 113 -19 14
-37 28 -40 31 -17 17 -216 116 -253 125 -32 9 -49 25 -71 66 l-19 37 31 33
c18 19 32 38 32 44 0 14 42 -35 60 -69z m560 10 c0 -28 -17 -8 -25 29 -6 29
-6 29 9 11 9 -11 16 -29 16 -40z m-1590 14 c-6 -12 -14 -19 -17 -17 -2 3 1 15
7 27 6 12 14 19 17 17 2 -3 -1 -15 -7 -27z m1156 5 c-11 -16 -14 -34 -10 -52
7 -28 7 -28 -13 -8 -20 20 -20 20 6 52 31 39 40 43 17 8z m-761 -135 c11 -9
52 -41 90 -69 39 -29 79 -60 90 -69 11 -9 27 -21 37 -27 48 -29 117 -79 114
-82 -2 -2 -34 8 -71 22 -88 33 -181 89 -295 178 -9 7 -33 25 -55 41 -22 16
-54 42 -72 59 -17 16 -36 26 -41 23 -14 -9 -9 19 7 38 7 9 10 16 5 17 -5 0 0
4 11 8 16 7 33 -4 90 -56 39 -36 79 -73 90 -83z m409 116 c28 -38 33 -56 14
-56 -17 1 -69 70 -62 81 9 16 21 10 48 -25z m-1157 -11 c-10 -35 -21 -43 -31
-26 -5 7 29 61 39 61 2 0 -2 -16 -8 -35z m2313 23 c-1 -7 -12 -26 -26 -43
l-25 -30 12 30 c13 31 29 55 35 55 2 0 4 -6 4 -12z m-2790 -13 c-6 -7 -41 -69
-76 -137 -74 -139 -77 -129 -10 25 8 18 23 43 33 55 10 12 26 33 36 47 10 14
21 25 24 25 3 0 0 -7 -7 -15z m3057 -22 c-3 -10 -5 -4 -5 12 0 17 2 24 5 18 2
-7 2 -21 0 -30z m-1864 15 c24 -12 86 -59 126 -95 14 -12 29 -19 35 -16 6 3 8
3 4 -2 -4 -4 -2 -12 5 -19 7 -6 34 -30 59 -53 26 -24 46 -43 44 -43 -5 0 -154
111 -195 145 -110 91 -128 110 -78 83z m295 -29 c19 -22 67 -82 105 -132 99
-130 48 -85 -95 83 -23 26 -58 78 -58 84 0 14 16 3 48 -35z m-553 -27 c-1 -1
-18 5 -38 13 -25 10 -35 20 -31 30 5 12 12 10 39 -12 17 -16 31 -29 30 -31z
m1443 24 c7 -15 9 -52 5 -95 -6 -75 -4 -78 39 -62 21 8 25 3 50 -50 24 -52 25
-58 8 -49 -10 5 -27 10 -38 10 -15 0 -69 58 -135 148 -6 8 0 30 19 67 16 30
32 55 35 55 3 0 11 -11 17 -24z m-1998 -17 c0 -19 -62 -94 -76 -91 -8 2 -15
-4 -15 -13 -2 -24 -4 -29 -18 -50 -9 -14 -11 -15 -7 -3 3 9 10 34 15 56 10 34
19 49 61 99 5 7 10 17 10 24 0 8 4 8 15 -1 8 -7 15 -16 15 -21z m2172 -31 c-8
-27 -11 -30 -17 -15 -4 9 -1 32 6 50 17 39 24 15 11 -35z m-2232 32 c-6 -11
-13 -20 -16 -20 -2 0 0 9 6 20 6 11 13 20 16 20 2 0 0 -9 -6 -20z m262 -30
c-4 -44 -7 -45 -39 -27 l-23 13 25 26 c13 14 21 29 17 32 -3 4 0 4 9 1 10 -4
13 -17 11 -45z m164 33 c9 -10 23 -18 30 -19 17 -3 163 -107 163 -117 1 -12
-40 2 -75 26 -120 83 -154 109 -149 118 8 12 11 12 31 -8z m2633 -38 c0 -14
-4 -10 -14 14 -19 42 -19 50 0 25 8 -10 14 -28 14 -39z m-1840 -114 c85 -95
69 -94 -34 4 -38 37 -82 78 -98 91 -23 22 -25 28 -16 47 11 20 13 20 43 -19
17 -21 64 -77 105 -123z m1289 106 c1 -28 -3 -78 -9 -110 -10 -50 -10 -60 5
-75 15 -17 24 -43 9 -29 -13 14 -33 -17 -34 -52 -1 -41 2 -46 -43 97 l-26 83
27 42 c16 23 32 45 38 49 5 4 6 8 1 8 -5 0 -1 9 9 20 10 11 19 20 19 20 1 0 2
-24 4 -53z m-371 11 c-3 -7 -5 -2 -5 12 0 14 2 19 5 13 2 -7 2 -19 0 -25z
m177 17 c-4 -8 -11 -15 -16 -15 -6 0 -5 6 2 15 7 8 14 15 16 15 2 0 1 -7 -2
-15z m386 -32 c-1 -24 -2 -26 -11 -10 -5 9 -7 22 -4 27 10 17 15 11 15 -17z
m-2573 -7 c14 -13 37 -30 52 -38 33 -17 62 -46 53 -52 -19 -12 -123 -177 -117
-186 4 -6 2 -9 -5 -8 -6 2 -23 -19 -38 -46 -35 -64 -41 -72 -79 -111 -43 -44
-73 -95 -73 -125 0 -14 -9 -42 -20 -63 -11 -20 -17 -37 -14 -37 3 0 -1 -6 -9
-14 -15 -15 -74 -150 -130 -299 -25 -68 -36 -86 -44 -75 -7 9 -1 54 24 163 20
83 36 159 37 171 1 11 6 25 10 32 4 6 20 62 36 124 26 100 63 215 90 273 5 11
18 41 29 68 21 51 78 137 99 150 6 4 12 12 12 17 0 15 42 80 51 80 6 0 22 -11
36 -24z m2788 -113 c-3 -71 -8 -136 -11 -146 -6 -18 -7 -18 -20 1 -18 26 -11
142 13 218 9 30 18 54 20 54 2 0 1 -57 -2 -127z m64 69 c1 -7 -3 -10 -9 -7 -5
3 -10 21 -9 38 1 31 1 31 9 7 4 -14 8 -31 9 -38z m-2589 13 c22 -14 44 -25 48
-25 5 0 19 -9 32 -20 13 -11 29 -20 36 -20 14 0 98 -79 91 -86 -8 -9 -125 42
-210 92 -87 51 -88 51 -65 67 29 20 22 21 68 -8z m1956 -290 c29 -31 49 -45
68 -45 14 0 26 6 26 13 0 11 23 -13 56 -59 16 -23 28 -154 13 -154 -4 0 -23
23 -41 50 -18 28 -36 50 -40 50 -5 0 -8 5 -8 10 0 6 -11 22 -25 36 -14 14 -25
28 -25 32 0 4 -26 34 -57 67 -47 50 -127 183 -138 230 -1 6 -5 18 -10 28 -4 9
-4 25 -1 34 5 12 27 -22 73 -115 39 -77 84 -151 109 -177z m-2596 271 c0 -3
-4 -8 -10 -11 -5 -3 -10 -1 -10 4 0 6 5 11 10 11 6 0 10 -2 10 -4z m2941 -48
c15 -21 24 -60 35 -155 7 -71 14 -135 13 -143 -1 -18 -42 116 -55 179 -3 13
-9 32 -14 41 -5 10 -7 20 -4 23 3 2 -2 22 -10 42 -21 50 -21 72 -1 55 9 -7 25
-26 36 -42z m-3067 -8 c-21 -63 -95 -240 -101 -240 -6 0 8 73 17 85 4 6 11 21
15 34 10 33 77 172 81 168 2 -1 -4 -23 -12 -47z m2693 28 c-3 -8 -6 -5 -6 6
-1 11 2 17 5 13 3 -3 4 -12 1 -19z m-852 -46 c-3 -3 -6 -3 -7 -1 -2 2 -14 18
-28 34 l-25 30 32 -29 c18 -16 31 -32 28 -34z m256 -54 c44 -30 85 -65 184
-161 96 -92 157 -135 272 -189 74 -36 86 -39 99 -26 20 20 10 41 -26 55 -17 6
-30 18 -30 27 0 9 -11 39 -25 68 -30 63 -31 64 -3 38 32 -30 65 -36 88 -15 18
16 21 14 73 -57 29 -40 75 -105 101 -145 25 -39 52 -73 59 -76 17 -6 41 6 46
23 5 20 4 184 -3 243 -3 26 -1 47 4 47 38 0 220 -432 190 -450 -11 -7 -150
-31 -252 -45 -79 -10 -107 -15 -232 -39 -83 -16 -135 -22 -145 -16 -9 5 -57
10 -106 13 -89 4 -90 4 -90 29 0 15 -4 24 -10 21 -6 -2 -30 18 -52 45 -24 28
-59 56 -84 67 -24 10 -73 32 -108 48 -66 31 -149 39 -232 24 -48 -10 -105 -70
-181 -194 -35 -56 -80 -120 -101 -143 l-38 -41 -52 29 c-57 32 -89 41 -158 49
-40 4 -50 1 -72 -21 -14 -14 -28 -26 -30 -26 -2 0 -18 33 -36 73 -32 71 -70
111 -216 232 -26 22 -75 33 -117 26 -4 0 -19 4 -33 9 -18 7 -25 6 -26 -3 0 -9
-2 -9 -6 1 -7 17 -23 15 -68 -8 -22 -11 -55 -21 -73 -22 -26 -1 -41 -10 -65
-41 -18 -22 -46 -54 -63 -71 -19 -18 -41 -57 -54 -96 -25 -73 -56 -114 -80
-104 -8 3 -36 8 -61 11 -39 4 -51 1 -68 -16 -12 -12 -21 -29 -21 -38 0 -10
-12 -26 -26 -37 -22 -16 -28 -16 -40 -4 -16 16 -6 51 55 197 17 41 29 76 27
79 -3 2 2 11 10 19 8 8 12 19 9 24 -4 5 -2 9 2 9 5 0 24 34 42 75 20 44 38 71
42 64 5 -9 15 -9 38 -1 17 6 31 8 31 5 0 -3 11 6 25 21 14 15 25 25 25 22 0
-2 13 9 29 25 16 16 39 29 50 29 11 0 23 5 26 10 4 6 10 8 15 5 5 -3 11 -1 15
5 4 6 11 7 18 3 6 -4 31 -8 57 -9 43 -2 92 -9 135 -18 11 -3 25 -5 32 -5 7 -1
24 -13 38 -28 l26 -28 20 24 20 24 29 -21 c39 -30 63 -29 55 1 -31 103 -58
165 -85 192 -28 28 -36 30 -105 32 -40 1 -101 -5 -134 -13 -33 -7 -75 -16 -93
-19 -63 -11 -123 -28 -135 -38 -9 -7 -13 -5 -13 6 0 9 5 19 10 22 6 4 7 11 4
17 -4 7 -2 8 4 4 10 -6 17 7 10 17 -1 1 8 13 20 27 11 14 21 29 21 33 0 4 6
14 14 21 7 8 35 47 62 89 54 84 50 83 133 30 28 -18 52 -30 52 -26 0 3 8 -1
18 -9 9 -9 52 -27 94 -42 42 -14 98 -37 125 -50 45 -23 91 -43 103 -44 3 -1
22 -8 44 -17 21 -9 41 -14 44 -11 3 3 11 1 18 -5 6 -5 60 -12 118 -15 107 -5
141 2 178 40 12 12 25 10 89 -11 75 -24 180 -31 349 -21 62 3 65 5 68 30 4 29
-31 103 -89 190 l-38 58 88 -45 c49 -24 104 -54 122 -67z m636 63 c10 9 15 5
24 -17 6 -16 13 -38 15 -48 2 -11 11 -41 20 -68 9 -27 14 -51 11 -54 -5 -6
-44 59 -81 135 -29 61 -32 71 -14 53 8 -8 15 -9 25 -1z m256 -59 c9 -37 30
-109 47 -160 36 -109 38 -135 6 -70 -13 26 -31 55 -41 64 -41 42 -65 94 -65
144 0 45 15 90 31 90 3 0 13 -31 22 -68z m367 28 c8 -16 7 -39 -5 -93 -18 -79
-40 -137 -29 -77 9 46 15 106 16 153 0 42 3 45 18 17z m-2302 -29 c42 -22 150
-62 181 -67 13 -3 37 -12 53 -20 16 -8 33 -12 38 -9 6 3 10 3 10 -2 0 -10 58
-37 83 -39 10 -1 21 5 24 12 3 8 16 14 30 14 40 0 9 -29 -38 -36 -25 -4 -36
-11 -32 -18 5 -8 3 -8 -8 0 -8 7 -48 14 -89 17 -41 4 -90 11 -107 16 -18 5
-33 7 -33 3 0 -4 -4 -2 -8 5 -4 6 -22 15 -41 20 -32 8 -42 18 -55 53 -3 8 -13
25 -22 38 -18 24 -14 27 14 13z m873 -63 c11 -21 18 -42 15 -46 -10 -16 -64
-11 -87 7 -21 18 -22 19 -4 15 37 -8 50 10 38 51 -10 32 -10 35 3 24 9 -7 24
-30 35 -51z m650 -24 c19 -22 34 -64 22 -63 -9 0 -93 104 -93 114 0 9 51 -28
71 -51z m627 -214 c-3 -190 -12 -342 -17 -295 -1 11 -5 29 -7 40 -2 11 -6 127
-8 258 -3 234 -3 237 16 220 18 -16 19 -30 16 -223z m197 198 c-2 -24 -7 -54
-10 -68 -3 -14 -8 -40 -11 -59 -6 -28 -8 -31 -16 -17 -12 22 21 186 37 186 3
0 3 -19 0 -42z m-140 -145 c-10 -91 -15 -92 -15 -5 0 45 4 72 11 72 7 0 8 -22
4 -67z m-2402 26 c12 -6 29 -19 35 -30 11 -18 10 -19 -11 -14 -13 4 -46 17
-73 30 l-49 24 37 1 c20 0 48 -5 61 -11z m-908 -219 c-13 -47 -24 -74 -25 -60
-1 14 -4 34 -6 45 -10 41 -7 72 11 144 l20 74 11 -59 c11 -53 10 -68 -11 -144z
m-97 77 c-20 -54 -23 -83 -8 -92 6 -4 17 -2 24 4 15 13 22 -5 33 -82 3 -23 9
-50 14 -59 6 -10 6 -18 1 -18 -5 0 -14 -28 -20 -61 -6 -34 -13 -64 -16 -66 -9
-10 -46 23 -56 51 -14 39 -13 69 2 60 7 -4 8 -3 4 5 -4 6 -11 9 -16 6 -13 -8
-45 45 -42 69 6 43 8 52 20 73 7 12 11 26 10 30 -1 4 5 31 14 58 9 28 22 70
29 95 l13 45 6 -35 c3 -22 -1 -53 -12 -83z m317 26 c-8 -25 -13 -49 -13 -52 1
-3 -2 -13 -5 -21 -17 -43 -35 -122 -32 -140 2 -11 0 -18 -4 -16 -7 5 -48 -148
-67 -252 -4 -18 -10 -30 -15 -25 -8 8 7 84 52 258 11 44 21 85 23 90 1 6 6 26
10 45 8 35 42 136 52 152 12 20 12 4 -1 -39z m3171 -48 c-12 -74 -17 -98 -25
-114 -5 -9 -6 -31 -4 -48 3 -19 1 -33 -5 -33 -14 0 -24 58 -13 78 9 17 15 45
27 129 4 24 11 40 16 37 6 -4 7 -25 4 -49z m-3330 -40 c3 -8 -7 -56 -24 -107
-29 -92 -40 -132 -48 -175 -6 -31 -23 -71 -23 -53 0 17 14 95 23 125 12 44 44
191 45 213 1 17 20 15 27 -3z m3386 -99 c-10 -23 -72 -54 -72 -36 0 5 9 11 20
15 15 5 21 19 26 58 l7 51 15 -32 c12 -24 13 -37 4 -56z m-139 -20 c-10 -11
-19 -23 -20 -25 -1 -2 -1 10 0 26 2 23 6 29 20 25 17 -4 17 -5 0 -26z m-1253
-7 c19 -12 52 -28 73 -35 50 -18 91 -47 118 -85 l22 -31 -64 33 c-59 30 -147
85 -176 109 -6 5 -24 12 -38 14 -41 8 -43 16 -4 16 19 0 50 -10 69 -21z
m-1099 -26 c13 -15 17 -22 8 -15 -9 6 -19 9 -22 5 -4 -3 -7 -1 -7 6 0 7 -4 9
-10 6 -5 -3 -10 1 -10 9 0 23 13 20 41 -11z m-310 -16 c-10 -9 -11 -8 -5 6 3
10 9 15 12 12 3 -3 0 -11 -7 -18z m272 -12 c27 -14 53 -22 58 -19 5 3 8 1 7
-5 -2 -5 22 -25 52 -43 53 -32 55 -35 78 -113 19 -67 23 -96 19 -180 -5 -122
-18 -155 -89 -226 -30 -30 -79 -88 -108 -129 -61 -86 -72 -96 -120 -106 -121
-25 -172 -5 -245 94 -27 37 -62 81 -77 99 -47 57 -61 97 -54 161 10 97 30 175
51 196 8 8 15 19 15 25 0 5 6 16 14 23 7 8 20 27 29 43 14 27 31 48 98 122 28
31 99 70 138 76 18 3 35 8 38 11 9 8 46 -3 96 -29z m-1136 11 c4 -4 9 -12 9
-17 1 -5 2 -13 3 -19 0 -5 9 -10 20 -10 21 0 37 -40 20 -51 -20 -12 -4 -43 41
-77 53 -40 60 -53 28 -50 -27 3 -30 -17 -11 -72 14 -40 17 -211 4 -226 -4 -5
-17 -38 -27 -74 -15 -53 -19 -98 -19 -242 0 -97 -2 -175 -4 -172 -2 2 -11 -2
-20 -9 -14 -10 -14 -10 -3 5 11 14 9 20 -15 42 -15 15 -62 47 -104 71 -61 36
-80 54 -97 88 -30 61 -43 105 -49 163 -5 51 -5 52 20 47 28 -6 47 15 25 28
-23 13 -15 160 13 235 38 104 82 129 130 77 37 -41 91 -131 94 -156 4 -35 5
-37 14 -37 6 0 8 12 7 28 -2 15 -4 36 -5 47 -1 20 -45 95 -88 149 -26 32 -88
45 -113 24 -25 -21 -58 -71 -80 -124 l-21 -49 6 55 c3 30 13 80 22 110 17 64
85 182 119 209 23 18 66 22 81 7z m2260 -26 c33 -21 94 -56 134 -77 136 -70
172 -127 168 -270 -2 -105 -38 -257 -70 -298 -64 -82 -133 -128 -283 -190 -71
-30 -88 -30 -141 -6 -52 24 -91 64 -122 126 -14 27 -31 53 -37 57 -6 4 -8 8
-4 8 4 0 1 15 -7 34 -14 33 -20 77 -30 209 -6 79 4 104 73 174 44 45 49 53 32
53 -5 0 -10 -8 -11 -17 0 -12 -2 -13 -6 -5 -4 10 -9 9 -24 -4 -10 -9 -19 -12
-19 -6 0 6 4 12 8 14 4 2 20 24 35 51 17 28 33 45 39 41 6 -4 8 -3 5 3 -4 6
19 30 51 54 31 24 65 54 75 67 27 32 64 28 134 -18z m1323 -15 c-7 -9 -15 -13
-19 -10 -3 3 1 10 9 15 21 14 24 12 10 -5z m-3287 -21 c-3 -8 -13 -48 -22 -89
-15 -67 -17 -72 -34 -60 -16 11 -16 18 -6 61 6 27 14 56 17 64 5 14 8 24 11
35 0 3 10 5 21 5 13 0 18 -5 13 -16z m3122 -83 c-6 -5 -26 -11 -45 -15 -35 -5
-35 -5 5 9 50 17 51 17 40 6z m47 -55 c8 -20 7 -28 -6 -41 -9 -9 -16 -22 -16
-28 0 -7 -5 -44 -10 -84 -5 -39 -10 -197 -11 -351 -1 -200 -5 -279 -13 -276
-13 5 -67 -78 -120 -181 -53 -104 -57 -108 -51 -49 4 40 2 53 -9 57 -9 4 -18
3 -20 -2 -9 -13 -44 -115 -51 -146 -3 -16 -13 -43 -20 -60 -7 -16 -35 -85 -61
-152 -42 -108 -64 -147 -64 -113 0 18 -145 154 -186 175 -21 11 -59 40 -84 65
-48 48 -79 75 -150 130 -25 19 -62 51 -82 72 -24 24 -47 38 -64 38 -14 0 -23
4 -19 10 3 5 -20 16 -52 25 -101 28 -126 47 -78 59 38 10 34 46 -5 46 -16 0
-32 1 -35 2 -2 1 -29 6 -60 13 -31 6 -55 15 -53 20 2 6 7 9 11 7 4 -1 16 6 27
16 11 10 44 26 73 35 29 9 73 30 98 45 24 16 65 41 91 56 27 15 55 40 63 56 9
17 20 30 25 30 6 0 10 6 10 13 0 8 9 22 20 32 11 10 20 25 20 34 0 9 7 26 15
37 8 12 24 48 37 80 22 60 24 66 27 84 0 6 14 10 30 10 39 0 69 41 67 94 -1
35 3 41 29 52 58 24 190 53 265 58 155 10 305 28 340 41 51 19 59 18 72 -9z
m-3282 -36 c0 -5 -2 -10 -4 -10 -3 0 -8 5 -11 10 -3 6 -1 10 4 10 6 0 11 -4
11 -10z m2608 -9 c10 -6 9 -10 -7 -14 -14 -3 -21 0 -21 9 0 16 9 18 28 5z
m-1154 -10 c5 -8 -84 -3 -93 5 -2 2 16 4 42 4 25 0 48 -4 51 -9z m1066 -1 c0
-5 -2 -10 -4 -10 -3 0 -8 5 -11 10 -3 6 -1 10 4 10 6 0 11 -4 11 -10z m-1218
-55 c-2 -14 -8 -22 -13 -19 -5 3 -5 14 1 25 14 26 18 24 12 -6z m108 7 c0 -4
-13 -9 -30 -10 -16 -1 -30 2 -30 8 0 5 14 10 30 10 17 0 30 -4 30 -8z m-1029
-65 c-16 -16 -26 0 -10 19 9 11 15 12 17 4 2 -6 -1 -17 -7 -23z m-404 1 c-3
-8 -6 -5 -6 6 -1 11 2 17 5 13 3 -3 4 -12 1 -19z m1558 8 c22 -16 27 -40 14
-74 -6 -15 -10 -65 -10 -112 0 -69 -3 -87 -14 -87 -8 0 -13 3 -10 5 3 3 -10
24 -28 46 -47 58 -79 113 -86 148 -8 40 -25 40 -29 1 -2 -18 1 -33 7 -33 6 0
8 -6 5 -13 -5 -13 53 -106 85 -138 32 -31 158 -198 186 -246 16 -29 17 -36 5
-44 -8 -5 -33 -7 -55 -4 -22 3 -71 8 -110 10 -38 2 -86 9 -105 14 -40 13 -133
15 -127 4 3 -5 -6 -8 -19 -8 -13 0 -24 1 -24 1 0 2 31 77 45 109 8 17 23 52
35 79 40 91 66 191 51 200 -8 5 -27 -58 -23 -76 1 -3 -5 -12 -13 -18 -8 -7
-15 -17 -15 -22 0 -5 -21 -57 -46 -116 -25 -59 -46 -115 -47 -124 -1 -10 -5
-18 -9 -18 -4 0 -8 -9 -8 -21 0 -13 4 -18 12 -13 6 4 8 3 4 -4 -3 -6 -39 -18
-79 -27 -65 -15 -177 -63 -202 -86 -5 -5 -15 -9 -23 -9 -22 0 -115 -47 -146
-75 -16 -14 -33 -25 -38 -25 -6 0 -54 -46 -109 -102 -54 -57 -99 -98 -99 -91
0 6 -8 9 -17 6 -19 -5 -28 -18 -100 -162 l-48 -95 -5 70 c-4 61 -7 69 -25 69
-18 0 -20 -7 -22 -60 -3 -100 -4 -103 -14 -70 -14 46 -49 217 -49 243 0 15 -4
21 -12 16 -7 -4 -8 -3 -4 4 8 14 -3 84 -13 78 -3 -2 -7 8 -7 22 -3 73 -4 78
-24 79 -16 1 -20 -4 -20 -30 -1 -27 -2 -29 -11 -14 -6 9 -12 25 -14 35 -2 9
-12 55 -23 102 -37 156 -41 185 -32 226 17 73 23 109 24 134 1 14 3 27 7 30 3
3 15 45 27 94 12 49 24 91 26 94 3 2 31 -6 62 -19 52 -22 79 -51 67 -71 -8
-14 25 -8 41 7 24 25 33 18 40 -32 13 -87 59 -201 101 -252 57 -68 83 -85 135
-87 25 -1 81 -5 125 -8 84 -5 82 -6 265 63 30 11 54 25 52 31 -1 6 2 9 8 5 14
-9 50 13 50 30 0 8 5 14 11 13 10 -3 79 106 77 121 -1 17 5 29 32 61 17 19 35
53 41 75 29 114 32 119 84 147 57 31 156 39 190 14z m-1390 -16 c3 -5 1 -10
-4 -10 -6 0 -11 5 -11 10 0 6 2 10 4 10 3 0 8 -4 11 -10z m-105 -17 c0 -8 -17
-117 -25 -163 -3 -14 -8 -45 -11 -70 -3 -25 -12 -76 -20 -115 l-13 -70 5 85
c5 81 29 270 41 318 5 20 23 32 23 15z m173 1 c9 -3 13 -13 10 -24 -4 -16 -9
-17 -29 -8 -42 20 -25 49 19 32z m-126 -53 c-3 -16 -1 -34 6 -41 9 -10 9 -11
0 -6 -8 4 -15 -17 -24 -69 -7 -41 -16 -75 -20 -75 -7 0 -6 7 16 129 8 46 15
85 15 87 0 2 3 4 6 4 4 0 4 -13 1 -29z m46 -11 c3 -11 1 -18 -4 -14 -5 3 -9
12 -9 20 0 20 7 17 13 -6z m-13 -64 c0 -2 -8 -10 -17 -17 -16 -13 -17 -12 -4
4 13 16 21 21 21 13z m3239 -143 l-1 -48 -8 40 c-7 37 -5 55 6 55 2 0 3 -21 3
-47z m-3312 -15 c-3 -7 -5 -2 -5 12 0 14 2 19 5 13 2 -7 2 -19 0 -25z m499
-48 c32 -44 62 -80 66 -80 10 0 31 -40 25 -47 -8 -8 -63 25 -95 57 -24 24 -72
121 -72 145 0 19 25 -6 76 -75z m2869 23 c-6 -35 -32 -103 -39 -103 -4 0 13
110 19 128 2 6 9 12 15 12 7 0 9 -13 5 -37z m-3358 1 c-3 -3 -12 -4 -19 -1 -8
3 -5 6 6 6 11 1 17 -2 13 -5z m1054 -21 c-5 -10 -22 -29 -37 -43 -30 -26 -19
-7 21 37 24 27 29 29 16 6z m-1074 -25 c-3 -7 -5 -2 -5 12 0 14 2 19 5 13 2
-7 2 -19 0 -25z m1652 -38 c27 -26 48 -50 45 -53 -5 -4 28 -34 80 -71 66 -47
65 -45 1 -40 -80 7 -132 16 -119 21 22 8 -8 97 -46 133 -9 8 -40 59 -40 64 0
13 33 -10 79 -54z m1818 -12 c-3 -8 -6 -5 -6 6 -1 11 2 17 5 13 3 -3 4 -12 1
-19z m-7 -70 c-5 -24 -11 -63 -15 -88 -9 -67 -34 -148 -57 -187 -27 -44 -32
-37 -13 17 22 63 75 268 75 291 0 11 4 18 9 15 5 -3 5 -25 1 -48z m-3485 -40
c-4 -40 -8 -85 -9 -100 -1 -16 -4 -28 -8 -28 -4 0 -9 -10 -11 -22 -3 -18 -5
-17 -6 7 -1 31 31 215 38 215 2 0 0 -33 -4 -72z m3305 53 c0 -34 -12 -81 -21
-81 -5 0 -9 23 -9 50 0 38 4 50 15 50 8 0 15 -8 15 -19z m-1971 -55 c-12 -10
-59 -15 -59 -6 0 5 14 10 32 10 17 0 29 -2 27 -4z m268 -40 c4 -4 8 -13 9 -21
2 -12 -13 -15 -74 -15 -72 1 -225 29 -240 45 -4 4 62 5 146 2 84 -2 156 -7
159 -11z m-492 -69 c-26 -23 -53 -47 -59 -53 -9 -9 -103 0 -114 11 -12 11 205
99 217 88 3 -2 -17 -22 -44 -46z m2252 -19 c-3 -8 -6 -5 -6 6 -1 11 2 17 5 13
3 -3 4 -12 1 -19z m-2091 -25 c-9 -10 -125 -33 -150 -31 l-29 3 28 27 c14 15
36 28 48 30 20 3 110 -23 103 -29z m474 27 c8 -1 0 -6 -19 -10 -37 -9 -64 -3
-55 11 3 5 18 7 32 5 15 -2 34 -5 42 -6z m1328 -372 c-157 -315 -204 -398
-152 -265 14 34 32 82 41 107 8 25 20 48 27 52 6 4 8 8 4 8 -4 0 33 81 83 179
49 98 89 182 89 186 0 4 9 20 21 36 11 16 22 37 24 47 2 9 4 19 5 22 1 3 6 -6
11 -20 9 -22 -10 -66 -153 -352z m278 330 c-4 -13 -9 -30 -11 -38 -15 -60 -58
-165 -75 -187 -29 -38 -25 -15 15 71 19 42 35 79 35 83 0 11 34 93 39 93 2 0
0 -10 -3 -22z m-2357 -24 c5 -5 -20 -34 -30 -34 -4 0 -34 -16 -66 -35 -68 -41
-97 -47 -65 -12 24 26 29 47 10 47 -7 0 -4 6 7 12 11 7 26 18 34 26 10 10 27
12 60 7 25 -4 48 -9 50 -11z m784 -18 c31 -8 57 -12 57 -9 0 3 6 0 14 -6 8 -7
21 -11 29 -9 8 2 50 -20 93 -48 73 -46 115 -70 217 -120 21 -11 54 -38 73 -61
19 -23 72 -80 118 -126 46 -47 101 -107 122 -134 21 -26 41 -50 44 -53 3 -3
16 -19 28 -37 24 -33 28 -53 12 -53 -5 0 -10 6 -10 14 0 19 -14 28 -34 20 -12
-5 -16 -21 -16 -68 0 -62 0 -62 -60 -126 -59 -64 -63 -62 -26 12 19 36 17 68
-4 68 -6 0 -27 -17 -47 -37 -20 -21 -34 -33 -30 -26 11 17 -24 32 -50 22 -23
-8 -113 -116 -113 -135 0 -6 -6 -17 -14 -23 -11 -9 -22 -2 -52 35 -83 99 -91
107 -108 101 -23 -9 -20 -32 9 -82 24 -40 25 -44 8 -49 -10 -3 -27 -19 -38
-36 -19 -29 -20 -29 -40 -10 -11 11 -22 31 -23 46 -3 36 -21 57 -37 44 -13
-11 -45 -3 -45 11 0 5 12 12 28 16 25 7 31 8 50 12 4 1 17 10 30 20 18 16 21
24 12 45 -9 24 -15 26 -64 26 -50 0 -54 2 -49 20 7 25 -21 49 -56 50 -19 0
-21 3 -12 14 13 15 11 37 -4 48 -15 11 -204 0 -283 -17 -40 -8 -77 -15 -81
-15 -4 0 -23 24 -41 53 -42 65 -52 75 -68 69 -18 -6 -15 -20 18 -73 l30 -49
-24 0 c-12 0 -33 9 -45 19 -24 21 -56 17 -47 -5 9 -23 -60 -2 -121 36 -17 11
-25 12 -34 3 -8 -8 0 -18 32 -39 24 -15 55 -30 69 -35 24 -7 24 -7 -6 -8 -17
-1 -37 -8 -44 -16 -7 -8 -23 -15 -35 -15 -33 0 -55 -10 -55 -25 0 -15 22 -25
56 -25 13 0 24 -3 24 -6 0 -10 -81 -158 -92 -169 -7 -7 -9 -6 -5 1 8 13 -36
35 -81 41 -60 7 -52 -47 13 -87 29 -18 33 -25 24 -36 -15 -19 -35 -18 -43 2
-3 8 -10 13 -15 9 -5 -3 -12 4 -16 15 -6 18 -17 25 -38 21 -5 -1 -6 3 -3 8 6
9 -88 96 -96 89 -3 -1 -15 9 -29 23 -13 14 -46 42 -73 63 -38 29 -51 34 -62
25 -12 -10 -12 -16 2 -38 33 -51 112 -123 126 -115 7 4 10 3 5 -1 -4 -5 1 -17
10 -28 18 -20 18 -20 -14 -3 -18 9 -35 15 -37 14 -2 -2 -15 11 -27 27 -13 17
-29 36 -37 44 -16 17 -91 122 -118 168 -12 20 -28 39 -35 44 -8 5 -10 9 -5 9
5 0 3 6 -4 14 -14 18 -40 10 -40 -11 0 -15 72 -128 94 -148 18 -16 46 -75 36
-75 -11 0 -12 2 -86 95 -30 39 -74 101 -96 138 l-41 68 24 27 c13 15 26 29 29
32 3 3 10 14 16 24 6 11 22 23 36 27 27 7 48 27 159 150 96 107 149 159 161
159 9 0 31 9 118 47 67 30 239 81 292 88 57 7 115 10 333 21 77 3 142 8 144 9
4 5 45 -2 114 -19z m234 8 c-3 -3 -12 -4 -19 -1 -8 3 -5 6 6 6 11 1 17 -2 13
-5z m-1972 -46 c4 -18 9 -43 10 -55 2 -12 13 -43 24 -69 12 -26 20 -48 18 -50
-1 -2 -17 19 -34 45 -24 36 -33 63 -36 105 -4 61 6 75 18 24z m703 -15 c-25
-27 -61 -65 -79 -85 -33 -39 -51 -48 -46 -25 3 19 148 155 167 157 2 0 -17
-21 -42 -47z m1454 -48 c89 -32 118 -48 147 -79 l24 -26 -71 24 c-39 14 -96
41 -127 61 -80 54 -76 57 27 20z m-2052 -109 c0 -26 -6 -18 -14 19 -5 22 -4
26 4 15 5 -8 10 -24 10 -34z m370 -75 c-5 -11 -15 -23 -21 -27 -6 -3 -3 5 6
20 20 30 30 35 15 7z m1831 2 c13 -16 12 -17 -3 -4 -17 13 -22 21 -14 21 2 0
10 -8 17 -17z m754 -68 c-16 -30 -34 -60 -41 -66 -6 -5 4 22 23 62 19 39 37
68 40 65 3 -3 -7 -30 -22 -61z m-692 14 c6 -21 6 -21 -19 2 -29 27 -32 44 -5
30 10 -6 21 -20 24 -32z m122 -79 c34 -27 66 -46 70 -42 5 4 5 2 1 -5 -4 -7 4
-19 18 -28 32 -21 41 -48 25 -74 -12 -18 -15 -17 -52 22 -74 80 -146 177 -131
177 3 0 34 -22 69 -50z m215 -72 c28 -32 50 -61 50 -64 0 -9 -49 31 -50 40 0
6 -25 34 -55 63 -30 29 -55 56 -55 59 0 14 66 -44 110 -98z m431 11 c-5 -13
-10 -19 -10 -12 -1 15 10 45 15 40 3 -2 0 -15 -5 -28z m-2972 -96 c59 -108 77
-151 46 -106 -20 29 -115 209 -115 219 0 12 6 3 69 -113z m2825 21 c-20 -38
-50 -88 -65 -111 -16 -23 -29 -46 -29 -51 0 -5 -8 -16 -17 -23 -15 -11 -16
-11 -5 1 6 8 12 26 12 40 0 15 17 49 41 81 22 30 52 73 66 97 40 67 37 43 -3
-34z m122 3 c-7 -21 -18 -43 -25 -50 -8 -7 -6 3 4 28 9 22 19 46 22 53 12 29
11 4 -1 -31z m-446 -37 c10 -19 -4 -60 -22 -60 -14 0 -18 40 -6 59 16 26 15
26 28 1z m76 -76 c-3 -9 -6 -21 -6 -27 0 -7 -4 -18 -9 -26 -8 -12 -12 -12 -25
-2 -14 12 -14 16 1 42 18 31 50 41 39 13z m-1053 -11 c-13 -2 -33 -2 -45 0
-13 2 -3 4 22 4 25 0 35 -2 23 -4z m913 -17 c3 -8 -2 -27 -12 -41 -16 -25 -19
-26 -25 -9 -7 20 9 64 23 64 5 0 11 -6 14 -14z m464 -6 c0 -4 -26 -34 -57 -67
-32 -33 -55 -55 -50 -49 4 5 7 16 7 24 0 25 70 111 85 105 8 -3 15 -9 15 -13z
m-2781 -82 c16 -29 40 -69 51 -88 18 -29 14 -27 -23 15 -25 27 -43 53 -41 57
3 4 -2 21 -11 38 -26 50 -9 34 24 -22z m1268 36 c-3 -3 -12 -4 -19 -1 -8 3 -5
6 6 6 11 1 17 -2 13 -5z m984 -74 c-7 -22 -19 30 -12 55 4 16 6 15 11 -10 4
-16 4 -37 1 -45z m292 -5 c-25 -45 -43 -51 -43 -15 0 17 43 60 61 60 4 0 -4
-20 -18 -45z m-1623 -23 c0 -9 -4 -23 -9 -31 -15 -24 -61 12 -61 48 0 15 3 31
6 34 11 10 64 -33 64 -51z m-920 -102 c-2 -21 -80 120 -80 142 0 7 18 -21 40
-62 22 -41 40 -77 40 -80z m1410 135 c0 -8 -4 -15 -9 -15 -5 0 -14 7 -21 15
-10 13 -9 15 9 15 12 0 21 -6 21 -15z m170 7 c0 -5 -21 -15 -47 -21 -37 -10
-48 -9 -54 1 -14 21 -11 23 46 26 30 1 55 -1 55 -6z m830 -7 c0 -12 -131 -155
-142 -155 -20 0 -3 26 59 90 59 62 83 81 83 65z m-412 -30 c-4 -20 -112 -148
-116 -137 -4 12 35 79 72 125 28 35 51 41 44 12z m208 -29 c-3 -13 -16 -34
-29 -47 -13 -13 -39 -46 -57 -74 -19 -27 -42 -59 -52 -69 -18 -20 -18 -19 -16
8 1 15 10 34 20 43 10 9 18 22 18 30 0 7 5 13 10 13 6 0 10 4 10 9 0 6 21 39
48 74 45 61 61 66 48 13z m-2275 -116 c23 -47 45 -87 50 -88 5 -2 7 -8 3 -13
-3 -5 -1 -9 3 -9 5 0 15 -16 22 -35 7 -21 17 -33 23 -29 7 5 9 2 5 -8 -3 -9 3
-25 13 -35 10 -11 20 -29 22 -39 2 -10 10 -18 17 -16 7 1 10 -2 6 -8 -3 -5 -1
-10 5 -10 6 0 9 -4 5 -10 -5 -8 -58 43 -87 85 -4 5 -18 24 -32 40 -43 54 -137
265 -136 304 1 17 45 -54 81 -129z m246 38 c53 -69 143 -203 143 -214 0 -23
-94 104 -186 254 -26 41 -6 23 43 -40z m1303 52 c8 -5 11 -10 6 -10 -5 0 -3
-7 4 -15 20 -25 5 -17 -20 10 -24 25 -18 33 10 15z m990 -17 c0 -8 -14 -34
-32 -57 -41 -53 -56 -68 -35 -34 42 67 57 100 51 110 -4 7 -2 8 4 4 7 -4 12
-14 12 -23z m-1591 -11 c11 -8 11 -14 1 -33 -17 -32 -30 -39 -51 -29 -9 5 -20
6 -24 2 -7 -7 0 21 16 66 9 23 14 23 58 -6z m138 13 c-4 -8 -2 -17 3 -20 4 -3
10 0 12 6 3 9 9 9 26 0 24 -13 26 -19 13 -39 -6 -10 -18 -8 -54 11 -42 23 -44
26 -29 41 20 20 36 21 29 1z m1639 -7 c-9 -13 -22 -34 -29 -48 -14 -30 -36
-54 -43 -48 -7 8 25 64 52 92 33 32 42 34 20 4z m-280 -73 c-25 -36 -46 -69
-46 -72 0 -10 -32 -43 -42 -43 -4 0 -8 20 -8 44 0 39 4 47 33 65 17 11 48 36
67 56 51 53 49 25 -4 -50z m-1686 40 c4 3 10 -2 14 -10 7 -18 4 -18 -29 -3
-26 12 -30 19 -18 32 4 3 11 0 16 -9 4 -8 12 -13 17 -10z m78 -10 c-3 -3 -9 2
-12 12 -6 14 -5 15 5 6 7 -7 10 -15 7 -18z m1216 10 c-4 -8 -10 -15 -15 -15
-5 0 -9 -5 -9 -10 0 -16 -37 -53 -43 -43 -3 4 9 25 26 45 33 39 50 48 41 23z
m-1959 -117 c56 -83 115 -145 229 -243 49 -42 98 -85 109 -96 11 -10 29 -21
38 -24 10 -4 43 -42 74 -86 33 -48 60 -77 67 -73 6 4 8 3 5 -3 -4 -6 7 -28 23
-48 17 -21 28 -40 26 -43 -3 -2 -39 12 -80 32 -42 20 -77 36 -78 34 -2 -1 -18
12 -36 30 -19 18 -38 29 -45 26 -7 -4 -9 -4 -6 0 6 6 -46 66 -57 66 -4 0 -47
46 -69 73 -6 6 -25 30 -43 52 -17 22 -32 48 -32 57 0 10 -4 18 -10 18 -5 0
-10 7 -10 15 0 8 -4 15 -10 15 -9 0 -64 78 -65 92 0 4 -6 13 -12 20 -7 6 -13
18 -13 26 0 8 -5 10 -12 6 -7 -4 -10 -4 -6 1 4 4 -11 44 -33 89 -43 87 -29 76
46 -36z m1768 6 c-9 -19 -20 -34 -24 -34 -19 0 -28 30 -22 83 l6 56 28 -35
c27 -35 28 -36 12 -70z m447 68 c0 -4 -14 -16 -31 -26 l-32 -19 23 31 c21 28
40 34 40 14z m-1238 -15 c25 -20 26 -23 8 -23 -11 0 -20 4 -20 8 0 4 -7 8 -15
8 -8 0 -15 7 -15 15 0 20 10 18 42 -8z m183 11 c5 4 5 2 2 -4 -6 -10 6 -18 47
-35 13 -5 66 -52 63 -55 -2 -2 -36 14 -77 34 -57 28 -74 42 -72 55 3 13 7 15
16 8 7 -6 17 -7 21 -3z m521 -24 c-3 -8 -10 -12 -16 -9 -7 4 -6 14 2 28 12 24
24 8 14 -19z m-85 -1 c13 -16 12 -17 -3 -4 -10 7 -18 15 -18 17 0 8 8 3 21
-13z m-1061 -55 c48 -27 51 -30 35 -52 -13 -18 -16 -17 -53 15 -22 19 -52 50
-68 69 l-29 35 40 -24 c22 -13 56 -33 75 -43z m2010 32 c-6 -11 -13 -20 -16
-20 -2 0 0 9 6 20 6 11 13 20 16 20 2 0 0 -9 -6 -20z m-1540 -26 c0 -7 -8 -15
-17 -18 -10 -4 -14 -4 -10 0 4 4 -1 13 -11 20 -15 11 -14 12 11 11 15 -1 27
-7 27 -13z m1220 -21 c0 -34 -5 -41 -42 -65 -32 -20 -46 -24 -60 -17 -16 9
-11 16 39 64 32 30 59 54 61 55 1 0 2 -17 2 -37z m232 0 c-35 -45 -124 -129
-172 -163 l-33 -24 39 51 c21 28 64 69 95 92 31 22 64 50 74 61 30 34 28 22
-3 -17z m-1764 5 c11 -14 10 -16 -7 -11 -12 3 -17 11 -14 19 3 8 6 14 7 12 1
-2 7 -11 14 -20z m357 12 c-3 -5 -1 -10 4 -10 6 0 11 -7 11 -15 0 -17 -16 -20
-25 -5 -7 12 0 40 10 40 4 0 3 -4 0 -10z m612 -5 c9 -25 -2 -27 -22 -5 -17 18
-17 20 -1 20 9 0 19 -7 23 -15z m183 -11 c0 -8 -43 -43 -54 -44 -5 0 1 11 14
25 22 24 40 32 40 19z m-649 -53 c25 -14 44 -32 42 -38 -7 -19 -22 -16 -80 14
-36 18 -53 32 -53 45 0 23 22 18 91 -21z m-441 20 c0 -6 -4 -13 -10 -16 -5 -3
-10 1 -10 9 0 9 5 16 10 16 6 0 10 -4 10 -9z m970 -9 c0 -13 -12 -22 -22 -16
-10 6 -1 24 13 24 5 0 9 -4 9 -8z m-1070 -17 c7 -8 17 -12 24 -9 6 3 4 -1 -5
-8 -12 -9 -14 -20 -8 -35 l8 -23 -33 22 c-29 19 -31 24 -22 45 13 27 19 28 36
8z m1236 -36 c-9 -13 -16 -18 -16 -12 0 6 -7 13 -15 15 -14 3 -14 6 1 26 15
21 18 22 31 9 14 -13 14 -18 -1 -38z m-1052 25 c23 -9 20 -44 -3 -44 -24 0
-33 13 -25 34 7 18 7 18 28 10z m-505 -58 c-3 -3 -11 5 -18 17 -13 21 -12 21
5 5 10 -10 16 -20 13 -22z m621 19 c0 -1 -6 -17 -13 -34 -12 -29 -14 -30 -34
-16 -12 8 -20 23 -18 32 2 10 4 21 4 24 1 5 61 0 61 -6z m347 -1 c-3 -3 -12
-4 -19 -1 -8 3 -5 6 6 6 11 1 17 -2 13 -5z m138 -4 c13 -6 15 -9 5 -9 -8 0
-22 4 -30 9 -18 12 -2 12 25 0z m639 -10 c-10 -4 -21 -6 -24 -3 -8 7 24 22 34
16 5 -4 1 -10 -10 -13z m-444 -8 c0 -12 -3 -12 -15 -2 -8 7 -15 13 -15 15 0 1
7 2 15 2 8 0 15 -7 15 -15z m754 -3 c-16 -18 -97 -97 -138 -134 -30 -27 -130
-99 -211 -150 -116 -74 -126 -80 -149 -89 -26 -9 53 64 80 74 42 17 130 80
184 132 30 29 85 70 122 92 37 21 79 52 94 67 32 34 46 39 18 8z m-1365 -3
c23 -13 27 -19 23 -50 -2 -20 -6 -36 -8 -36 -2 0 -19 8 -39 17 -25 12 -34 22
-29 32 3 9 7 23 9 31 2 8 4 16 4 18 2 5 13 1 40 -12z m816 5 c6 -10 -33 -36
-41 -28 -3 2 -2 12 2 21 7 18 29 22 39 7z m305 -35 c0 -2 -7 -7 -16 -10 -8 -3
-12 -2 -9 4 6 10 25 14 25 6z m-1002 -28 c45 -24 50 -34 30 -60 -12 -15 -16
-15 -50 -1 -33 13 -38 19 -38 49 0 19 3 34 8 34 4 0 26 -10 50 -22z m152 0 c0
-6 -7 -7 -16 -4 -9 3 -20 6 -25 6 -5 0 -9 4 -9 9 0 4 11 6 25 3 14 -2 25 -9
25 -14z m905 12 c-3 -5 -14 -10 -23 -10 -15 0 -15 2 -2 10 20 13 33 13 25 0z
m-355 -24 c0 -18 -128 -98 -136 -85 -7 13 -11 10 58 49 32 17 61 36 64 41 8
13 14 11 14 -5z m-420 -38 c10 -6 7 -7 -10 -2 -14 3 -32 11 -40 16 -10 6 -7 7
10 2 14 -3 32 -11 40 -16z m-610 -24 c0 -2 -9 0 -20 6 -11 6 -20 13 -20 16 0
2 9 0 20 -6 11 -6 20 -13 20 -16z m438 10 c12 -8 22 -22 22 -30 0 -12 -7 -14
-32 -9 -41 9 -41 9 -33 34 8 25 14 26 43 5z m-368 -35 c0 -5 -8 -9 -17 -8 -11
0 -13 3 -5 6 6 2 9 10 6 15 -4 7 -2 8 4 4 7 -4 12 -11 12 -17z m-93 -38 c24
-32 12 -32 -27 -1 -22 17 -40 36 -40 42 0 12 49 -18 67 -41z m631 31 c5 -16
-7 -15 -38 3 l-25 15 29 -3 c17 -2 32 -9 34 -15z m-462 -34 c4 -5 1 -15 -6
-21 -9 -9 -11 -9 -8 0 2 6 -6 18 -17 27 -20 15 -20 15 3 9 12 -3 25 -10 28
-15z m572 -20 c27 -27 11 -35 -35 -17 -26 10 -27 12 -8 19 28 12 29 12 43 -2z
m-773 -10 c3 4 5 2 3 -4 -3 -10 50 -67 70 -76 26 -11 131 -93 123 -96 -13 -4
-132 52 -156 74 -11 11 -34 29 -51 42 -44 31 -56 85 -14 62 10 -5 21 -6 25 -2z
m492 -21 c4 -6 -9 -8 -36 -3 -31 5 -41 3 -35 -5 4 -8 3 -9 -4 -5 -7 4 -12 11
-12 17 0 12 79 9 87 -4z m96 -8 c-8 -8 -16 -8 -30 0 -16 9 -14 10 12 11 21 0
26 -3 18 -11z m86 -5 c2 -2 -12 -3 -32 -2 -20 1 -34 5 -31 10 5 7 52 1 63 -8z
m-497 -13 c18 -10 78 -48 133 -85 99 -65 100 -66 62 -66 -45 0 -74 14 -178 86
-42 29 -80 50 -84 46 -4 -4 -2 3 4 16 14 27 21 27 63 3z m-332 -47 c0 -2 -9 0
-20 6 -11 6 -20 13 -20 16 0 2 9 0 20 -6 11 -6 20 -13 20 -16z m750 4 c-16
-15 -23 -16 -45 -6 -36 16 -31 23 19 23 43 0 44 -1 26 -17z m145 12 c-7 -11
-73 -25 -82 -17 -3 3 10 10 28 16 45 12 61 13 54 1z m185 -40 c-14 -4 -32 -8
-40 -9 -13 -1 -13 0 0 9 8 5 26 9 40 9 l25 -1 -25 -8z m-383 -24 c7 -1 15 -5
19 -9 10 -10 -47 3 -65 14 -12 8 -10 9 9 4 14 -3 30 -7 37 -9z m87 -48 c-3 -4
-14 -3 -25 2 -11 6 -17 15 -14 20 4 6 14 5 25 -2 10 -7 16 -16 14 -20z m-160
-34 c26 -10 18 -20 -14 -19 -31 0 -40 9 -17 18 6 3 13 6 14 6 1 1 8 -2 17 -5z
m-218 -72 c-4 -3 -14 2 -24 12 -16 18 -16 18 6 6 13 -6 21 -14 18 -18z"/>
<path d="M1206 3925 c-3 -8 0 -17 6 -21 6 -4 8 -3 4 4 -3 5 -1 12 6 14 8 3 9
6 1 11 -6 4 -13 0 -17 -8z"/>
<path d="M2645 3559 c-69 -9 -125 -39 -168 -92 -20 -25 -37 -49 -37 -53 0 -3
-8 -14 -18 -23 -21 -19 -52 -62 -52 -73 0 -5 7 -8 15 -8 8 0 15 -9 15 -19 0
-20 21 -33 36 -23 6 4 23 25 39 47 65 88 64 88 210 80 228 -12 284 -18 318
-37 27 -14 90 -21 82 -8 -3 5 -1 11 5 15 18 11 11 24 -42 79 -46 46 -60 54
-103 60 -27 4 -82 18 -121 32 -83 28 -112 32 -179 23z m120 -111 c7 -8 5 -9
-8 -4 -10 3 -51 7 -90 7 -51 1 -63 3 -42 8 41 9 128 2 140 -11z"/>
<path d="M1572 2983 c-6 -3 -10 -9 -6 -14 3 -5 1 -9 -5 -9 -8 0 -25 -35 -23
-50 0 -3 -4 -13 -9 -22 -16 -30 -20 -129 -7 -146 10 -12 10 -14 1 -9 -9 6 -11
-2 -9 -27 2 -19 7 -39 11 -45 11 -19 16 -59 6 -65 -15 -10 -33 22 -33 59 0 19
-3 37 -7 40 -5 2 -7 -23 -7 -56 1 -63 21 -94 52 -82 8 3 18 -5 24 -22 9 -23
13 -25 26 -14 12 10 14 34 12 131 -2 65 -1 118 2 118 8 0 1 204 -8 211 -4 4
-13 4 -20 2z m-2 -168 c0 -62 -4 -95 -11 -95 -7 0 -9 25 -5 78 3 42 5 85 6 95
0 9 2 17 5 17 3 0 5 -43 5 -95z"/>
<path d="M512 2782 c-12 -10 -29 -38 -36 -62 -23 -80 -5 -272 29 -300 20 -16
49 -8 54 15 3 16 1 17 -12 7 -12 -11 -17 -4 -29 45 -30 120 -20 253 22 283 11
8 20 18 20 22 0 13 -24 8 -48 -10z"/>
<path d="M2580 2970 c-13 -8 -12 -10 3 -10 9 0 17 5 17 10 0 12 -1 12 -20 0z"/>
<path d="M2759 2883 c-1 -5 -1 -12 0 -16 1 -5 -3 -6 -9 -2 -13 8 -54 -83 -69
-155 -17 -83 3 -276 31 -293 25 -16 43 5 61 71 24 86 28 117 34 239 6 130 1
163 -27 163 -11 0 -21 -3 -21 -7z m25 -72 c-12 -181 -39 -336 -54 -311 -4 7
-6 24 -4 39 2 14 10 73 19 129 10 73 12 109 5 123 -12 22 1 56 23 56 9 0 12
-11 11 -36z"/>
<path d="M2742 1743 c-12 -15 -22 -31 -22 -35 0 -4 -8 -8 -19 -8 -10 0 -45
-14 -77 -31 -32 -16 -72 -32 -89 -35 -16 -3 -41 -9 -55 -13 -14 -5 -53 -8 -87
-9 -33 0 -72 -3 -84 -7 -54 -17 -208 -21 -235 -6 -29 15 -156 41 -185 37 -15
-2 -37 2 -50 9 -44 25 -94 47 -119 51 -13 3 -29 9 -35 14 -6 5 -17 5 -25 0
-20 -12 2 -36 48 -51 20 -6 46 -19 57 -29 33 -29 77 -46 124 -49 24 -2 55 -7
68 -12 14 -5 36 -9 49 -9 14 0 32 -7 40 -15 22 -21 164 -25 239 -6 22 6 76 13
120 15 44 2 80 5 80 6 0 3 40 11 67 13 15 1 37 10 48 19 11 10 37 25 57 35 37
17 47 20 69 22 20 2 65 121 46 121 -5 0 -18 -12 -30 -27z"/>
</g>
</svg>
